<?xml version="1.0" encoding="utf-8"?>
<!-- Generator: Adobe Illustrator 23.0.0, SVG Export Plug-In . SVG Version: 6.00 Build 0)  -->
<svg version="1.1" id="Layer_1" xmlns="http://www.w3.org/2000/svg" xmlns:xlink="http://www.w3.org/1999/xlink" x="0px" y="0px"
	 viewBox="0 0 512 512" style="enable-background:new 0 0 512 512;" xml:space="preserve">
<style type="text/css">
	.st0{fill:#FFFFFF;stroke:#000000;stroke-miterlimit:10;}
	.st1{fill:#F8B42E;}
	.st2{fill:#FACF4A;}
	.st3{fill:#F8B22B;}
	.st4{fill:#F8B104;}
	.st5{fill:#FDEDAA;}
	.st6{fill:#FDECAD;}
	.st7{fill:#F8B811;}
	.st8{fill:#FBD65B;}
	.st9{fill:#FBD86A;}
	.st10{fill:#FCE584;}
	.st11{fill:#FBD47E;}
	.st12{fill:#FBD579;}
	.st13{fill:#FCE88D;}
	.st14{fill:#FCEA9B;}
	.st15{fill:#F7A30F;}
	.st16{fill:#FAD072;}
	.st17{fill:#FAC644;}
	.st18{fill:#FACF67;}
	.st19{fill:#FAC308;}
	.st20{fill:#F8B631;}
	.st21{fill:#FCDE68;}
	.st22{fill:#FCDF6F;}
	.st23{fill:#FBD550;}
	.st24{fill:#F9C03B;}
	.st25{fill:#FACB60;}
	.st26{fill:#FDEB94;}
	.st27{fill:#FDE77C;}
	.st28{fill:#FAC750;}
	.st29{fill:#FCDF78;}
	.st30{fill:none;stroke:#000000;stroke-miterlimit:10;}
</style>
<path class="st0" d="M138.5,261.5"/>
<g>
	<path class="st1" d="M244.69,135.41c12.22,14.67,24.43,29.34,36.65,44c-12.54-2.38-25.04-5.12-37.62-7
		c-8.17-1.22-16.47-1.18-24.71-1.71c-4.89-1.55-9.77-3.09-14.66-4.64c-23.86-5.78-47.72-11.57-71.58-17.35
		c6.34-1.58,12.82-5.04,19.01-4.4c18.74,1.96,37.36,5.51,56.03,8.44c13.56,3.13,27.12,6.26,40.68,9.39
		c0.38-1.87,0.75-3.75,1.13-5.62c-15.09-4.17-30.18-8.34-45.27-12.51c-27.06-5.77-54.11-11.54-81.17-17.31
		c-7.58-3.06-15.16-6.11-22.74-9.17c4.92-3.19,9.84-6.37,14.76-9.55c30.25,7.74,60.41,16.01,90.79,22.98
		C218.65,133.87,231.77,134.01,244.69,135.41z"/>
	<path class="st2" d="M336.52,251.12c22.43,14.15,44.87,28.29,67.3,42.44c-20.97,10.82-41.93,21.64-62.91,32.45
		c-1.36-7.57-2.71-15.13-4.06-22.69c4.88-0.04,9.77-0.08,14.65-0.12c3.22-1,6.45-2.01,9.67-3.01c-0.3-1.35-0.6-2.7-0.9-4.05
		c-2.93,0.91-5.86,1.82-8.78,2.74c-6.11-0.02-12.22-0.03-18.33-0.05c-1.23,0-2.46,0-3.7,0c1.22-2.94,2.44-5.89,3.67-8.83
		c-7.39-1.52-14.78-3.03-22.17-4.55c0.01-2.86,0.01-5.72,0.02-8.58c7.05,0,14.1,0,21.15,0c-6.7-4.63-13.49-3.49-19.88-4.94
		c-6.73-1.52-13.08-5.51-19.59-8.43c12.38,0,24.77,0,40.67,0c-20.39-4.92-37.86-9.14-55.34-13.35c1.2-1.44,2.4-2.88,3.6-4.32
		C299.89,247.58,318.2,249.35,336.52,251.12z"/>
	<path class="st3" d="M336.52,251.12c-18.31-1.77-36.62-3.53-54.94-5.3c-1.59-6.88-3.17-13.77-5.86-25.43
		c-10.18-1.51-24.21-3.6-38.24-5.69c-7.08-1.42-14.28-2.26-21.2-4.4c-12.79-3.96-25.42-8.68-38.12-13.09
		c7.9-4.42,20.31-5.52,11.37-22.31c4.9-1.44,9.79-2.88,14.69-4.32c3.77,2.91,7.53,5.83,11.3,8.74c20.83,3.01,41.66,6.01,62.49,9.02
		c1.43-0.24,2.86-0.47,4.3-0.71c0,0-0.47-0.04-0.47-0.04c1.65,1.53,3.3,3.06,4.95,4.59c3.66,4.42,7.31,8.85,10.96,13.27
		c-2.96,0.19-5.92,0.39-8.88,0.58c-20.85-7.13-41.42-17.69-63.8-6.95c21.3,3.8,42.59,7.59,63.89,11.39
		c4.82,1.5,9.64,2.99,14.46,4.49C314.46,227.02,325.49,239.07,336.52,251.12z M203.33,184.16c-0.6,2.59-1.19,5.18-1.79,7.77
		c3.43,1.27,6.82,2.82,10.33,3.47c0.45,0.08,1.5-4.45,2.28-6.84C210.54,187.09,206.94,185.62,203.33,184.16z"/>
	<path class="st4" d="M340.92,326.01c20.97-10.82,41.93-21.64,62.9-32.46c3.68,0.63,7.49,2.33,11.02,1.73
		c20.7-3.54,40.95-5.16,58.01,13.52c-12.26,4.07-24.52,8.14-36.78,12.21c-1.13-0.01-2.26-0.02-3.38-0.03
		c-13.33-17.46-19.97-6.06-25.83,8.64c-16.63,1.09-34.49-4.15-47.93,13.39c-9.9-0.17-19.8-0.34-29.7-0.5
		C333.13,337.01,337.02,331.51,340.92,326.01z"/>
	<path class="st5" d="M97.09,400.88c-8.49-4.46-16.97-8.91-25.46-13.37c22.13-10.36,44.26-20.73,66.38-31.09
		c19.66-4.49,39.33-8.98,58.99-13.46c-0.18,2.8-0.36,5.59-0.55,8.39c-15.77,6.22-31.55,12.45-47.32,18.67
		C131.79,380.3,114.44,390.59,97.09,400.88z"/>
	<path class="st5" d="M30.2,303.39c-0.67-7.58-1.34-15.17-2.01-22.74c17.04-3,34.09-6.01,51.13-9.01
		c18.27-2.51,36.54-5.03,54.81-7.56c0,5.46-0.01,10.92-0.01,16.38c-6.16,1.53-12.32,3.06-18.48,4.59
		c-14.64,3.13-29.28,6.25-43.91,9.38C57.88,297.41,44.04,300.4,30.2,303.39z"/>
	<path class="st6" d="M63.05,374.23c-5.81-7.34-11.63-14.69-17.44-22.03c22.16-7.41,44.33-14.83,66.49-22.24
		c12.27-1.75,24.54-3.49,36.8-5.24c0.02,4.56,0.04,9.11,0.06,13.67c-3.64,1.63-7.27,3.26-10.91,4.89
		C113.06,353.59,88.06,363.91,63.05,374.23z"/>
	<path class="st6" d="M38.63,338.64c-1.94-6.24-3.89-12.48-5.85-18.72c12.86-6.82,25.73-13.65,38.6-20.48
		c5.02,2.02,10.17,6.1,15.03,5.64c9.95-0.93,19.73-4.3,29.59-6.67c9.66,0.19,19.31,0.38,28.97,0.56
		c-10.88,5.92-21.76,11.85-32.65,17.77C87.75,324.05,63.19,331.34,38.63,338.64z"/>
	<path class="st7" d="M329.23,342.51c9.9,0.17,19.8,0.34,29.7,0.51c-8.59,5.97-17.18,11.93-25.76,17.9
		c-28.3,14.78-56.5,29.83-85,44.03c-4.03,2.01-9.48-0.1-14.28-0.3c3.82-4.08,7.64-8.17,11.46-12.26c3.81-3.11,7.62-6.21,11.44-9.31
		l1.36,0.07l1.34-0.29c2.48-1.48,4.96-2.95,7.44-4.43l-0.03,0.02c2.47-1.49,4.94-2.98,7.41-4.47l-0.08,0.06
		c2.5-1.46,4.99-2.92,7.49-4.38l-0.06,0.06c2.28-1.46,4.56-2.92,6.84-4.37c10.02-7.17,20.05-14.34,30.07-21.51
		c4.51,13.07,7.59,5.43,10.74-1.08L329.23,342.51z"/>
	<path class="st8" d="M244.69,135.41c-12.92-1.4-26.04-1.54-38.72-4.45c-30.37-6.97-60.54-15.23-90.79-22.98
		c11.37-3.91,22.73-7.82,34.1-11.73c1.19,2.33,2.01,6.17,3.64,6.76c18.42,6.63,36.88,13.16,55.52,18.84
		c8.28,2.52,16.98,3.06,25.49,4.49C237.52,129.36,241.1,132.39,244.69,135.41z"/>
	<path class="st5" d="M145.09,413.95c-10.96-1.54-21.93-3.09-32.89-4.63c14.84-8.76,29.69-17.52,44.52-26.28
		c19.56-8.87,39.12-17.74,58.68-26.6c3.76,1.5,7.52,3.01,11.28,4.51c-0.23,1.25-0.47,2.49-0.72,3.73
		C199,381.1,172.05,397.52,145.09,413.95z"/>
	<path class="st9" d="M145.09,413.95c26.96-16.43,53.92-32.85,80.88-49.27c2.68,1.75,5.37,3.49,8.05,5.24
		c-3.41,3.39-6.58,7.24-10.28,10.09c-15.02,11.58-30.21,22.85-45.34,34.24C167.29,414.15,156.19,414.05,145.09,413.95z"/>
	<path class="st10" d="M52.93,166.04c7.48-7.3,14.97-14.6,22.45-21.9c18.42,3.07,36.84,6.14,55.26,9.2
		c-0.02,4.22-0.04,8.44-0.06,12.67c-8.61,1.4-17.22,2.8-25.83,4.2c-9.75-1.27-19.5-2.54-29.25-3.81
		C67.98,166.28,60.46,166.16,52.93,166.04z"/>
	<path class="st11" d="M38.63,338.64c24.56-7.29,49.13-14.59,73.69-21.89c-0.07,4.4-0.14,8.8-0.21,13.21
		c-22.16,7.41-44.32,14.82-66.49,22.24C43.29,347.68,40.96,343.16,38.63,338.64z"/>
	<path class="st3" d="M233.93,126.34c-8.51-1.44-17.21-1.97-25.49-4.49c-18.64-5.68-37.1-12.21-55.52-18.84
		c-1.63-0.59-2.45-4.43-3.64-6.76c26.62-6.61,49.94,7.96,73.96,17.23C227.52,115.12,230.41,121.92,233.93,126.34z"/>
	<path class="st12" d="M63.05,374.23c25-10.32,50.01-20.63,75.01-30.95c-0.02,4.38-0.04,8.76-0.05,13.15
		c-22.13,10.36-44.26,20.72-66.38,31.09C68.77,383.08,65.91,378.65,63.05,374.23z"/>
	<path class="st13" d="M178.39,414.24c15.13-11.39,30.31-22.66,45.34-34.24c3.7-2.85,6.87-6.7,10.28-10.1
		c4.71-0.26,9.42-0.51,14.13-0.76c0,0.01,0.68,0.86,0.68,0.86c-0.18,4.18-0.37,8.36-0.55,12.54l0.1,0.05
		c-3.76,1.42-7.51,2.84-11.27,4.26c-12.06,10.18-24.13,20.36-36.19,30.55C193.41,416.36,185.9,415.3,178.39,414.24z"/>
	<path class="st12" d="M156.73,383.04c-14.84,8.76-29.69,17.52-44.53,26.28c-5.03-2.81-10.07-5.63-15.11-8.44
		c17.35-10.29,34.7-20.57,52.05-30.87C151.67,374.35,154.2,378.69,156.73,383.04z"/>
	<path class="st14" d="M30.61,227.58c2.41-5.76,4.81-11.53,7.22-17.29c16.22-1.32,32.43-2.65,48.64-3.97
		c4.87,0.06,9.74,0.12,14.61,0.18c0.04,4.19,0.08,8.38,0.11,12.57c-15.94,2.92-31.88,5.83-47.82,8.74
		C45.79,227.74,38.2,227.66,30.61,227.58z"/>
	<path class="st13" d="M38.46,197.11c3.71-5.86,7.41-11.72,11.12-17.58c8.65-0.13,17.31-0.26,25.96-0.39
		c9.73,0.22,19.46,0.44,29.19,0.65c0.03,4.27,0.06,8.54,0.08,12.82c-6.17,1.46-12.34,2.93-18.51,4.39
		C70.35,197.04,54.4,197.08,38.46,197.11z"/>
	<path class="st12" d="M79.32,271.63c-17.05,3.01-34.09,6.01-51.14,9.02c-0.03-8.58-0.07-17.16-0.11-25.74
		c9.22,13.9,9.22,13.9,14.19,4.39c12.34-1.38,24.68-2.75,37.02-4.13C79.29,260.65,79.31,266.14,79.32,271.63z"/>
	<path class="st15" d="M333.17,360.92c8.59-5.97,17.18-11.93,25.76-17.9c13.44-17.54,31.3-12.3,47.93-13.39c0,0,0.04,0.06,0.04,0.06
		c-0.07,1.46-0.08,2.92-0.04,4.37l-0.14,0.22c-1.17,1.26-2.35,2.52-3.52,3.78C379.86,345.68,356.51,353.3,333.17,360.92z"/>
	<path class="st16" d="M38.46,197.11c15.95-0.04,31.9-0.07,47.85-0.11c0.06,3.11,0.11,6.21,0.17,9.32
		c-16.21,1.32-32.42,2.65-48.64,3.97C38.04,205.9,38.25,201.51,38.46,197.11z"/>
	<path class="st11" d="M42.26,259.3c-4.96,9.51-4.96,9.51-14.19-4.39c0.85-9.1,1.7-18.21,2.54-27.31
		c7.58,0.07,15.17,0.15,22.76,0.23c-0.03,4.5-0.05,9-0.07,13.51C49.62,247.31,45.94,253.3,42.26,259.3z"/>
	<path class="st17" d="M130.64,153.34c-18.42-3.07-36.84-6.14-55.26-9.21c2.28-3.23,4.56-6.46,6.84-9.69
		c13.88-0.82,27.77-1.64,41.65-2.46c2.61,5.57,5.21,11.14,7.82,16.71C131.35,150.24,130.99,151.79,130.64,153.34z"/>
	<path class="st10" d="M123.88,131.99c-13.88,0.82-27.77,1.64-41.65,2.46c6.06-5.64,12.13-11.28,18.19-16.92
		c7.58,3.06,15.16,6.11,22.74,9.17C123.4,128.46,123.64,130.22,123.88,131.99z"/>
	<path class="st2" d="M278.02,188.34c-20.83-3.01-41.66-6.01-62.5-9.02c1.16-2.87,2.32-5.75,3.48-8.63
		c8.24,0.52,16.54,0.48,24.71,1.7c12.59,1.88,25.09,4.63,37.62,7c0.08,1.49,0.17,2.97,0.25,4.46
		C280.39,185.36,279.21,186.85,278.02,188.34z"/>
	<path class="st15" d="M432.69,320.98c1.13,0.01,2.25,0.02,3.38,0.03c7.39,1.44,14.73,3.55,22.16,4.16
		c8.52,0.7,17.12,0.08,25.69,0.03c-8.29,2.01-16.52,4.69-24.89,5.9c-17.39,2.51-34.85,4.25-52.28,6.3
		c-0.01-1.04-0.01-2.08-0.02-3.11c0,0,0.14-0.22,0.13-0.22c1.21-1.45,2.42-2.89,3.63-4.34C417.89,326.81,425.29,323.9,432.69,320.98
		z"/>
	<path class="st11" d="M71.38,299.44c-12.87,6.83-25.74,13.66-38.6,20.48c-0.85-5.52-1.71-11.03-2.58-16.53
		c13.83-2.99,27.67-5.98,41.51-8.97C71.6,296.09,71.49,297.77,71.38,299.44z"/>
	<path class="st18" d="M200.92,417.42c12.06-10.18,24.13-20.36,36.19-30.54c2.56,1.6,5.12,3.19,7.68,4.78l0.57,0.74
		c-3.82,4.08-7.64,8.17-11.47,12.25C222.9,408.9,211.91,413.16,200.92,417.42z"/>
	<path class="st19" d="M483.93,325.2c-8.57,0.05-17.16,0.67-25.69-0.03c-7.43-0.61-14.78-2.72-22.16-4.16
		c12.26-4.07,24.51-8.14,36.77-12.21C476.54,314.27,480.23,319.73,483.93,325.2z"/>
	<path class="st18" d="M75.54,179.14c-8.65,0.13-17.31,0.26-25.96,0.39c1.12-4.5,2.24-9,3.36-13.5c7.52,0.12,15.05,0.24,22.57,0.36
		C75.52,170.64,75.53,174.89,75.54,179.14z"/>
	<path class="st20" d="M288.88,206.04c2.96-0.19,5.92-0.39,8.88-0.58c1.89,3.17,3.78,6.34,5.67,9.51c-4.82-1.5-9.64-2.99-14.46-4.49
		C288.94,209,288.91,207.52,288.88,206.04z"/>
	<path class="st4" d="M406.73,334.28c0.01,1.04,0.02,2.08,0.02,3.11c-1.18,0.22-2.36,0.45-3.54,0.67
		C404.38,336.81,405.55,335.55,406.73,334.28z"/>
	<path class="st20" d="M286.8,192.19c-1.65-1.53-3.3-3.06-4.95-4.59C283.49,189.13,285.14,190.66,286.8,192.19z"/>
	<path class="st20" d="M278.02,188.34c1.19-1.49,2.37-2.98,3.56-4.48c0.58,1.17,0.82,2.42,0.73,3.77
		C280.88,187.87,279.45,188.11,278.02,188.34z"/>
	<path class="st21" d="M123.88,131.99c-0.24-1.76-0.48-3.53-0.71-5.29c27.06,5.77,54.11,11.54,81.17,17.32
		c1.16,2.92,2.31,5.83,3.47,8.75c-18.67-2.93-37.29-6.48-56.03-8.44c-6.18-0.65-12.66,2.81-18.99,4.4c0.02,0-1.08-0.02-1.08-0.02
		C129.09,143.12,126.48,137.56,123.88,131.99z"/>
	<path class="st22" d="M131.7,148.69c0,0,1.1,0.02,1.08,0.02c23.84,5.79,47.7,11.57,71.56,17.36c-0.04,1.51-0.08,3.01-0.12,4.52
		c-4.9,1.44-9.79,2.88-14.69,4.32c-19.65-2.97-39.3-5.93-58.95-8.9c0.02-4.22,0.04-8.45,0.06-12.67
		C130.99,151.79,131.35,150.24,131.7,148.69z"/>
	<path class="st2" d="M207.8,152.76c-1.16-2.92-2.31-5.83-3.47-8.75c15.09,4.17,30.18,8.34,45.27,12.51
		c-0.38,1.87-0.75,3.75-1.13,5.62C234.92,159.02,221.36,155.89,207.8,152.76z"/>
	<path class="st20" d="M204.22,170.58c0.04-1.51,0.08-3.01,0.12-4.52c4.89,1.54,9.77,3.09,14.66,4.64
		c-1.16,2.88-2.32,5.75-3.48,8.63C211.76,176.41,207.99,173.5,204.22,170.58z"/>
	<path class="st23" d="M248.28,382.56c0.18-4.18,0.37-8.36,0.54-12.55c2.37-0.08,4.74-0.16,7.11-0.23
		c19.01-11.56,38.02-23.11,57.03-34.67c-0.89-2.1-1.79-4.2-2.68-6.3c-18.14,10.72-36.29,21.44-54.43,32.16
		c-2.57,2.73-5.14,5.45-7.7,8.18c-4.71,0.25-9.42,0.51-14.13,0.76c-2.68-1.74-5.36-3.48-8.04-5.23c0.24-1.24,0.48-2.49,0.71-3.73
		c25.98-11.98,51.97-23.95,77.96-35.92c-0.49-1.81-0.98-3.62-1.47-5.43c-9,3.03-18.07,5.8-26.99,9.13
		c-20.32,7.58-40.57,15.43-60.85,23.17c-6.29-0.18-12.58-0.36-18.87-0.54c0.18-2.8,0.36-5.59,0.55-8.38
		c3.64-1.45,7.28-2.91,10.93-4.36c30.8-8.83,61.59-17.65,92.39-26.48l1.68-0.04l1.68,0c8.6-4.42,17.19-8.84,25.79-13.26
		c1.23,0,2.46,0,3.7,0c1.23,1.5,2.46,3,3.69,4.5c1.35,7.56,2.7,15.12,4.06,22.69c-3.89,5.51-7.79,11.01-11.68,16.51
		c0,0,0.08,0.24,0.08,0.24c-3.58,0.36-7.16,0.72-10.74,1.08c-10.02,7.17-20.05,14.34-30.07,21.51c-2.28,1.46-4.56,2.92-6.85,4.38
		c0,0,0.06-0.06,0.06-0.06c-2.5,1.46-4.99,2.92-7.49,4.38c0,0,0.08-0.06,0.08-0.06c-2.47,1.49-4.94,2.98-7.41,4.47
		c0,0,0.03-0.02,0.03-0.02c-2.48,1.48-4.96,2.95-7.44,4.43l-1.34,0.29c0,0-1.36-0.07-1.37-0.07
		C253.94,382.9,251.11,382.73,248.28,382.56z M313.87,317.85c0,0.58,0,1.15,0,1.73c1.8,0,3.61,0,5.41,0c0-0.58,0-1.15,0-1.73
		C317.47,317.85,315.67,317.85,313.87,317.85z"/>
	<path class="st24" d="M292.66,263.49c6.51,2.91,12.86,6.9,19.59,8.43c6.38,1.45,13.17,0.31,19.88,4.94c-7.05,0-14.1,0-21.15,0
		c-20.86,1.28-41.71,2.57-62.57,3.86c-22.04,1.52-44.08,3.04-66.13,4.56c0.03-4.14,0.06-8.28,0.09-12.43
		c8.49-0.4,16.97-0.79,25.46-1.19c18.35-2.69,36.7-5.39,55.05-8.08C272.8,263.55,282.73,263.52,292.66,263.49z"/>
	<path class="st20" d="M292.66,263.49c-9.93,0.03-19.85,0.06-29.78,0.09c-18.33-1.39-36.66-2.78-55-4.17
		c-13.42-1.67-26.83-3.33-40.25-5c1.19-1.51,2.37-3.02,3.56-4.53c8.51-0.12,17.01-0.24,25.52-0.37c14.75,0.1,29.49,0.19,44.24,0.29
		c12.35,0.11,24.69,0.22,37.04,0.33c17.48,4.22,34.96,8.43,55.34,13.35C317.43,263.49,305.04,263.49,292.66,263.49z"/>
	<path class="st17" d="M310.96,285.43c7.39,1.52,14.78,3.03,22.18,4.55c-17.19,1.53-34.37,3.06-51.56,4.59
		c-17.2,2.95-34.4,5.9-51.6,8.85c-11.49,1.78-22.96,4.62-34.47,4.79c-4.35,0.06-8.75-6.08-13.13-9.39
		c21.96-3.05,43.92-6.09,65.88-9.14C269.15,288.26,290.06,286.84,310.96,285.43z"/>
	<path class="st23" d="M277.98,250.14c-12.35-0.11-24.69-0.22-37.04-0.33c1.27-4.31,2.55-8.62,3.82-12.93
		c3.22-3.2,6.43-6.4,11.75-11.68c-8.62-1-14.01-1.62-19.4-2.24c0.12-2.75,0.24-5.5,0.36-8.25c14.03,2.09,28.05,4.17,38.24,5.69
		c2.69,11.66,4.28,18.54,5.86,25.43C280.38,247.26,279.18,248.7,277.98,250.14z"/>
	<path class="st8" d="M310.96,285.43c-20.9,1.41-41.8,2.83-62.7,4.25c0.05-2.99,0.1-5.98,0.15-8.97
		c20.86-1.29,41.71-2.57,62.57-3.85C310.97,279.71,310.96,282.57,310.96,285.43z"/>
	<path class="st21" d="M281.57,294.57c17.19-1.53,34.37-3.06,51.56-4.59c-1.22,2.94-2.44,5.89-3.67,8.83
		c-8.6,4.42-17.19,8.84-25.79,13.26c3.3-4.26,6.6-8.53,10.23-13.21c-10.54,0-21.41,0-32.29,0
		C281.61,297.43,281.59,296,281.57,294.57z"/>
	<path class="st23" d="M351.49,298.86c2.93-0.91,5.86-1.82,8.78-2.74c0.3,1.35,0.6,2.7,0.9,4.05c-3.22,1-6.45,2.01-9.67,3.01
		C351.53,301.75,351.53,300.31,351.49,298.86z"/>
	<path class="st21" d="M351.49,298.86c0.03,1.44,0.04,2.89,0.01,4.33c-4.88,0.04-9.77,0.08-14.65,0.12c-1.23-1.5-2.46-3-3.69-4.5
		C339.27,298.83,345.38,298.85,351.49,298.86z"/>
	<path class="st20" d="M130.59,166.01c19.65,2.97,39.3,5.93,58.95,8.9c8.94,16.79-3.47,17.89-11.37,22.31
		c-2.34-4.49-4.68-8.97-7.03-13.46c-20.76-1.69-41.52-3.38-62.28-5.07c-1.37-2.82-2.74-5.65-4.1-8.47
		C113.37,168.81,121.98,167.41,130.59,166.01z"/>
	<path class="st22" d="M171.14,183.75c2.34,4.49,4.69,8.97,7.03,13.46c12.69,4.41,25.32,9.13,38.11,13.09
		c6.92,2.14,14.12,2.98,21.2,4.4c-0.12,2.75-0.24,5.5-0.36,8.25c-23.29-1.45-46.58-2.91-69.87-4.36c-2.34-3.96-4.68-7.91-7.02-11.87
		c3.61-4.6,7.22-9.19,10.84-13.79C171.09,189.88,171.11,186.81,171.14,183.75z"/>
	<path class="st2" d="M288.88,206.04c0.03,1.48,0.06,2.96,0.09,4.44c-21.3-3.8-42.59-7.59-63.89-11.39
		C247.46,188.35,268.03,198.91,288.88,206.04z"/>
	<path class="st20" d="M203.33,184.16c3.61,1.47,7.21,2.94,10.82,4.41c-0.77,2.39-1.82,6.92-2.28,6.84
		c-3.51-0.66-6.9-2.2-10.33-3.47C202.14,189.34,202.74,186.75,203.33,184.16z"/>
	<path class="st19" d="M432.69,320.98c-7.4,2.92-14.8,5.83-22.2,8.75c-1.2-0.03-2.4-0.05-3.59-0.04c0,0-0.04-0.06-0.04-0.06
		C412.73,314.92,419.36,303.52,432.69,320.98z"/>
	<path class="st9" d="M196.46,351.34c6.29,0.18,12.58,0.36,18.87,0.54c0.02,1.52,0.05,3.04,0.07,4.56
		c-19.56,8.87-39.12,17.73-58.68,26.6c-2.53-4.34-5.05-8.69-7.58-13.03C164.91,363.79,180.69,357.56,196.46,351.34z"/>
	<path class="st18" d="M207.93,338.59c-3.64,1.45-7.29,2.91-10.93,4.36c-19.66,4.49-39.33,8.97-58.99,13.46
		c0.02-4.38,0.04-8.76,0.05-13.14c3.64-1.63,7.27-3.26,10.91-4.89c9.9-2.79,19.8-5.58,29.7-8.37c1.19-0.13,2.38-0.25,3.58-0.38
		c1.17-1.5,2.33-3.01,3.5-4.51c3.7,0.03,7.4,0.06,11.09,0.09c3.7,1.52,7.41,3.04,11.11,4.56
		C207.95,332.72,207.94,335.65,207.93,338.59z"/>
	<path class="st25" d="M171.19,249.88c-1.19,1.51-2.37,3.02-3.56,4.53c-2.53,2.99-5.06,5.99-7.59,8.98
		c-8.64,0.23-17.28,0.46-25.91,0.69c-18.27,2.52-36.54,5.04-54.8,7.56c-0.01-5.49-0.03-10.98-0.05-16.47
		c8.44-0.54,16.87-1.08,25.31-1.6c9.97-2.51,19.94-5.03,29.91-7.56C146.72,247.29,158.96,248.59,171.19,249.88z"/>
	<path class="st25" d="M144.97,298.98c-9.66-0.19-19.31-0.38-28.97-0.56c-0.12-4.46-0.24-8.92-0.37-13.38
		c6.16-1.53,12.32-3.06,18.48-4.58c8.68-1.16,17.36-2.34,26.03-3.51c2.49,2.93,4.98,5.87,7.46,8.8c1.18,8.78,2.36,17.56,3.53,26.34
		c-6.16,1.65-12.33,3.3-18.49,4.95C150.09,311.02,147.53,305,144.97,298.98z"/>
	<path class="st16" d="M115.63,285.04c0.12,4.46,0.24,8.92,0.37,13.38c-9.85,2.36-19.64,5.73-29.59,6.66
		c-4.86,0.46-10.01-3.62-15.03-5.64c0.11-1.67,0.22-3.34,0.33-5.02C86.36,291.29,100.99,288.17,115.63,285.04z"/>
	<path class="st26" d="M160.15,276.95c-8.68,1.17-17.36,2.34-26.03,3.51c0-5.47,0.01-10.93,0.01-16.39
		c8.64-0.22,17.27-0.46,25.91-0.69c4.88,2.87,9.76,5.75,14.64,8.62C169.83,273.65,164.99,275.3,160.15,276.95z"/>
	<path class="st18" d="M144.97,298.98c2.56,6.02,5.13,12.04,7.69,18.06c-1.25,2.56-2.5,5.12-3.75,7.68
		c-12.27,1.74-24.53,3.49-36.8,5.24c0.07-4.4,0.14-8.8,0.21-13.21C123.2,310.83,134.08,304.9,144.97,298.98z"/>
	<path class="st14" d="M148.91,324.72c1.25-2.56,2.5-5.13,3.75-7.68c6.16-1.64,12.33-3.29,18.49-4.94c2.42,1.4,4.84,2.79,7.26,4.19
		c2.45,2.95,4.89,5.9,7.34,8.85c-1.17,1.5-2.33,3.01-3.5,4.52c-1.2,0.05-2.39,0.17-3.57,0.38c-9.9,2.79-19.8,5.58-29.7,8.37
		C148.95,333.83,148.93,329.28,148.91,324.72z"/>
	<path class="st4" d="M318.57,343.82c3.58-0.36,7.16-0.72,10.74-1.08C326.16,349.26,323.09,356.89,318.57,343.82z"/>
	<path class="st18" d="M248.28,382.56c2.83,0.17,5.66,0.34,8.5,0.51c-3.81,3.1-7.62,6.2-11.43,9.31c0.01,0.01-0.56-0.73-0.56-0.73
		c1.2-3.02,2.39-6.03,3.59-9.05C248.38,382.61,248.28,382.56,248.28,382.56z"/>
	<path class="st18" d="M281.66,369.71c2.28-1.46,4.57-2.92,6.85-4.38C286.22,366.8,283.94,368.25,281.66,369.71z"/>
	<path class="st18" d="M266.89,378.45c2.47-1.49,4.94-2.98,7.41-4.47C271.84,375.47,269.37,376.96,266.89,378.45z"/>
	<path class="st18" d="M259.48,382.86c2.48-1.48,4.96-2.96,7.44-4.43C264.44,379.9,261.96,381.38,259.48,382.86z"/>
	<path class="st18" d="M274.23,374.04c2.5-1.46,4.99-2.92,7.49-4.38C279.22,371.12,276.72,372.58,274.23,374.04z"/>
	<path class="st27" d="M215.4,356.43c-0.02-1.52-0.05-3.04-0.07-4.56c20.28-7.74,40.53-15.59,60.85-23.17
		c8.92-3.33,17.99-6.1,26.99-9.13c0.49,1.81,0.98,3.62,1.47,5.43c-25.99,11.97-51.97,23.95-77.96,35.92
		C222.92,359.44,219.16,357.94,215.4,356.43z"/>
	<path class="st28" d="M104.76,170.21c1.37,2.82,2.74,5.65,4.1,8.48c-1.38,0.38-2.75,0.75-4.13,1.11
		c-9.73-0.22-19.46-0.43-29.19-0.65c-0.01-4.25-0.02-8.5-0.03-12.75C85.26,167.67,95.01,168.94,104.76,170.21z"/>
	<path class="st23" d="M248.38,382.61c-1.2,3.02-2.39,6.03-3.59,9.05c-2.56-1.59-5.12-3.19-7.68-4.78
		C240.86,385.45,244.62,384.03,248.38,382.61z"/>
	<path class="st28" d="M171.06,192.94c-3.61,4.6-7.22,9.19-10.84,13.78c-19.72-0.08-39.43-0.15-59.15-0.22
		c-4.87-0.06-9.74-0.12-14.61-0.18c-0.06-3.1-0.11-6.21-0.17-9.32c6.17-1.46,12.34-2.93,18.51-4.39
		C126.9,192.73,148.98,192.83,171.06,192.94z"/>
	<path class="st13" d="M101.08,206.5c19.71,0.07,39.43,0.14,59.15,0.22c2.34,3.96,4.68,7.92,7.03,11.88
		c-8.46,0.39-16.92,0.77-25.38,1.15c-1.26-0.32-2.51-0.64-3.77-0.95c-1.29,0.06-2.58,0.12-3.88,0.18c-11,0.39-22,0.78-33,1.17
		c0,0-0.04-1.09-0.04-1.09C101.15,214.88,101.11,210.69,101.08,206.5z"/>
	<path class="st18" d="M53.3,241.32c0.02-4.5,0.05-9,0.07-13.51c15.94-2.92,31.88-5.83,47.82-8.74c0,0,0.04,1.08,0.04,1.07
		c0.03,5.43,0.07,10.86,0.1,16.3C85.32,238.07,69.31,239.7,53.3,241.32z"/>
	<path class="st29" d="M171.06,192.94c-22.08-0.11-44.17-0.21-66.25-0.32c-0.03-4.28-0.06-8.55-0.08-12.82
		c1.38-0.37,2.75-0.73,4.13-1.11c20.76,1.68,41.52,3.38,62.28,5.07C171.11,186.81,171.09,189.88,171.06,192.94z"/>
	<path class="st5" d="M53.3,241.32c16.01-1.63,32.02-3.25,48.04-4.87c1.29,1.31,2.58,2.62,3.88,3.92
		c-0.21,4.39-0.42,8.78-0.63,13.17c-8.44,0.54-16.87,1.07-25.31,1.62c-12.34,1.38-24.68,2.76-37.01,4.13
		C45.94,253.3,49.62,247.31,53.3,241.32z"/>
	<path class="st4" d="M406.9,329.69c1.2-0.01,2.4,0.01,3.59,0.04c-1.21,1.45-2.42,2.89-3.63,4.34
		C406.82,332.61,406.83,331.15,406.9,329.69z"/>
	<path class="st2" d="M207.95,329.78c-3.7-1.52-7.41-3.04-11.11-4.56c11.12-4.31,22.24-8.61,33.35-12.92
		c17.14-4.48,34.28-8.96,51.42-13.43c10.88,0,21.75,0,32.29,0c-3.63,4.68-6.93,8.95-10.23,13.21c0,0-1.68,0-1.68,0
		s-1.68,0.04-1.68,0.04c-6.34-1.19-13.07-4.64-18.95-3.17C256.76,315.09,232.4,322.7,207.95,329.78z"/>
	<path class="st27" d="M207.95,329.78c24.45-7.08,48.8-14.7,73.41-20.84c5.88-1.47,12.61,1.98,18.95,3.17
		c-30.79,8.83-61.59,17.65-92.38,26.48C207.94,335.65,207.95,332.72,207.95,329.78z"/>
	<path class="st27" d="M255.84,360.97c18.14-10.72,36.29-21.44,54.43-32.16c0.89,2.1,1.79,4.2,2.68,6.3
		c-19.01,11.56-38.02,23.11-57.03,34.67C255.9,366.83,255.87,363.9,255.84,360.97z"/>
	<path class="st13" d="M255.84,360.97c0.03,2.93,0.05,5.87,0.08,8.8c-2.37,0.08-4.74,0.15-7.11,0.23c0.01,0.01-0.67-0.85-0.67-0.85
		C250.71,366.42,253.28,363.69,255.84,360.97z"/>
	<ellipse class="st27" cx="316.57" cy="318.71" rx="3.83" ry="1.22"/>
	<path class="st29" d="M178.41,316.28c-2.42-1.4-4.84-2.79-7.26-4.19c-1.18-8.78-2.36-17.56-3.54-26.34
		c4.89-0.16,9.78-0.32,14.67-0.48c22.04-1.52,44.08-3.04,66.13-4.56c-0.05,2.99-0.1,5.98-0.15,8.97
		c-21.96,3.04-43.92,6.09-65.89,9.14C181.05,304.63,179.73,310.46,178.41,316.28z"/>
	<path class="st21" d="M207.88,259.4c18.33,1.39,36.67,2.78,55,4.17c-18.35,2.69-36.7,5.39-55.05,8.08
		C207.85,267.58,207.86,263.49,207.88,259.4z"/>
	<path class="st29" d="M207.88,259.4c-0.02,4.09-0.03,8.17-0.05,12.25c-8.49,0.39-16.97,0.79-25.46,1.18
		c-2.57-0.28-5.13-0.56-7.69-0.83c-4.88-2.87-9.76-5.75-14.64-8.62c2.53-2.99,5.06-5.98,7.59-8.98
		C181.05,256.07,194.46,257.74,207.88,259.4z"/>
	<path class="st28" d="M174.67,272c2.56,0.28,5.13,0.55,7.69,0.83c-0.03,4.15-0.06,8.29-0.09,12.43c-4.89,0.16-9.78,0.32-14.67,0.48
		c-2.49-2.93-4.98-5.87-7.46-8.8C164.99,275.3,169.83,273.65,174.67,272z"/>
	<path class="st27" d="M171.19,249.88c-12.23-1.29-24.46-2.59-36.7-3.89c-0.06-3.08-0.11-6.15-0.17-9.23
		c2.43-2.62,4.86-5.23,7.3-7.85c17.19,1.22,34.39,2.44,51.58,3.66c1.17,5.64,2.34,11.29,3.51,16.93
		C188.2,249.64,179.69,249.76,171.19,249.88z"/>
	<path class="st21" d="M196.71,249.51c-1.17-5.64-2.34-11.29-3.51-16.93c17.19,1.43,34.38,2.86,51.57,4.3
		c-1.27,4.31-2.55,8.62-3.82,12.93C226.2,249.71,211.45,249.61,196.71,249.51z"/>
	<path class="st10" d="M178.41,316.28c1.32-5.82,2.64-11.65,3.96-17.47c4.38,3.31,8.79,9.46,13.14,9.39
		c11.5-0.16,22.98-3.01,34.47-4.79c0.07,2.96,0.15,5.92,0.22,8.88c-11.12,4.31-22.24,8.61-33.35,12.92
		c-3.7-0.03-7.4-0.06-11.09-0.09C183.3,322.18,180.85,319.23,178.41,316.28z"/>
	<path class="st22" d="M230.2,312.3c-0.07-2.96-0.15-5.92-0.22-8.88c17.2-2.95,34.4-5.9,51.59-8.85c0.02,1.43,0.04,2.86,0.05,4.29
		C264.48,303.34,247.34,307.82,230.2,312.3z"/>
	<path class="st20" d="M244.77,236.88c-17.19-1.43-34.38-2.86-51.57-4.3c-17.19-1.22-34.39-2.44-51.58-3.67
		c0.09-3.06,0.17-6.1,0.25-9.15c8.46-0.38,16.92-0.77,25.38-1.16c23.29,1.45,46.58,2.91,69.87,4.36c5.39,0.62,10.78,1.24,19.4,2.24
		C251.2,230.48,247.98,233.68,244.77,236.88z"/>
	<path class="st2" d="M178.67,330.02c1.19-0.21,2.38-0.33,3.57-0.38C181.06,329.77,179.87,329.9,178.67,330.02z"/>
	<path class="st26" d="M134.32,236.77c0.06,3.07,0.11,6.15,0.17,9.23c-9.97,2.52-19.93,5.05-29.9,7.56
		c0.21-4.4,0.42-8.79,0.62-13.17C114.91,239.19,124.62,237.98,134.32,236.77z"/>
	<path class="st28" d="M134.32,236.77c-9.71,1.21-19.41,2.42-29.12,3.62c-1.29-1.32-2.58-2.63-3.87-3.94
		c-0.03-5.44-0.07-10.88-0.1-16.3c11-0.38,22-0.77,33-1.16c1.29-0.06,2.58-0.12,3.88-0.18c1.25,0.32,2.51,0.63,3.77,0.95
		c-0.08,3.05-0.17,6.1-0.25,9.16C139.19,231.53,136.75,234.15,134.32,236.77z"/>
	<path class="st22" d="M138.11,218.8c-1.29,0.06-2.58,0.12-3.88,0.18C135.52,218.92,136.81,218.86,138.11,218.8z"/>
</g>
<path class="st30" d="M225.5,265.5"/>
</svg>
